<svg width="64" height="60" viewBox="0 0 64 60" fill="none" xmlns="http://www.w3.org/2000/svg">
<path d="M0 5.00004C0 2.23861 2.23857 4.40027e-05 5 4.20352e-05L59 3.56231e-06C61.7614 1.5949e-06 64 2.23858 64 5V55C64 57.7614 61.7614 60 59 60H5C2.23858 60 0 57.7614 0 55V5.00004Z" fill="#D2961E"/>
<path d="M49.9472 39.21L48.3122 46.2971C48.0826 47.299 47.2019 48 46.1703 48C28.4295 47.9986 14 33.5712 14 15.8323C14 14.8015 14.701 13.9198 15.7031 13.6913L22.7913 12.0567C23.8236 11.8175 24.8784 12.3532 25.3073 13.3307L28.5786 20.9592C28.961 21.8577 28.703 22.9046 27.9471 23.5219L24.1611 26.5614C26.5506 31.4282 30.5081 35.3852 35.377 37.7757L38.4767 33.9931C39.0876 33.2351 40.1426 32.9729 41.0412 33.362L48.6709 36.6321C49.5885 37.1148 50.1862 38.1835 49.9472 39.21Z" fill="white"/>
</svg>
