<svg width="171" height="171" viewBox="0 0 171 171" fill="none" xmlns="http://www.w3.org/2000/svg">
<circle cx="85.0613" cy="85.3145" r="85" fill="#F5DBA7"/>
<path d="M84.0258 101.146C82.3835 101.329 80.9236 100.781 79.5246 99.9295C65.1693 91.5962 50.8749 83.2629 36.5197 74.9904C34.5124 73.8347 34.5732 71.1583 36.5197 70.0634C50.9357 61.7909 65.291 53.3967 79.7071 45.0634C82.6876 43.3602 85.729 43.4819 88.6487 45.185C101.179 52.4843 113.77 59.7836 126.301 67.0828C127.943 68.0561 129.585 69.151 131.289 69.9417C133.6 71.0366 133.418 73.8955 131.289 75.112C120.644 81.1948 110.06 87.3991 99.4759 93.5427C95.8263 95.6716 92.1766 97.8006 88.527 99.9295C87.1888 100.72 85.729 101.268 84.0258 101.146Z" fill="#555555"/>
<path d="M51.059 89.5282C51.9105 90.0148 52.5188 90.3798 53.1879 90.7447C60.913 95.246 68.638 99.7472 76.3631 104.248C81.4726 107.229 86.5213 107.229 91.6916 104.248C99.7816 99.5039 107.872 94.8202 115.962 90.1365C116.266 89.954 116.509 89.8323 116.874 89.6499C116.935 89.8323 116.996 89.8932 116.996 90.0148C116.996 94.4552 117.057 98.8956 116.996 103.275C116.935 106.134 115.658 108.506 113.224 109.966C106.777 113.798 100.329 117.691 93.6989 121.158C86.8254 124.747 79.8303 124.321 73.1393 120.489C67.239 117.144 61.4604 113.737 55.5602 110.331C52.5796 108.628 51.059 106.073 51.1198 102.667C51.059 98.409 51.059 94.0902 51.059 89.5282Z" fill="#555555"/>
<path d="M132.567 80.465C132.567 85.6961 132.567 90.6839 132.567 95.6718C132.567 99.3822 132.567 103.032 132.567 106.742C132.567 107.229 132.872 107.837 133.237 108.202C135.548 110.514 135.609 114.102 133.419 116.414C131.168 118.664 127.397 118.664 125.207 116.353C122.957 114.042 123.078 110.392 125.451 108.141C125.998 107.655 126.12 107.168 126.12 106.499C126.12 99.3822 126.12 92.2655 126.12 85.1487C126.12 84.4187 126.302 83.9321 127.032 83.5672C128.796 82.7156 130.56 81.6207 132.567 80.465Z" fill="#555555"/>
</svg>
