<svg width="171" height="171" viewBox="0 0 171 171" fill="none" xmlns="http://www.w3.org/2000/svg">
<circle cx="85.5613" cy="85.3145" r="85" fill="#F5DBA7"/>
<path d="M66.4751 82.8827C68.8322 85.1247 71.1892 87.3668 73.5462 89.5514C76.7656 92.5983 79.985 95.7027 83.2043 98.7496C84.814 100.244 86.4812 100.244 88.0909 98.6921C93.3798 93.6906 98.6113 88.6316 103.9 83.63C104.188 83.4001 104.418 83.1126 104.705 82.8827C109.879 85.8721 114.076 89.8388 117.295 94.7828C121.492 101.164 123.619 108.178 123.561 115.824C123.561 116.629 123.561 117.491 123.561 118.296C123.561 120.825 122.412 121.975 119.882 121.975C103.843 121.975 87.8034 121.975 71.7641 121.975C64.9229 121.975 58.0818 121.975 51.1831 121.975C48.8261 121.975 47.6763 120.768 47.6188 118.411C47.4464 112.547 48.1362 106.855 50.3783 101.394C53.6552 93.4606 59.0016 87.3093 66.4751 82.8827Z" fill="#555555"/>
<path d="M112.466 46.5498C109.822 47.1247 107.235 47.6996 104.533 48.2744C104.533 48.6194 104.533 48.9643 104.533 49.3092C104.533 53.5059 104.533 57.7026 104.533 61.8418C104.533 67.1307 102.636 71.6148 98.8988 75.2941C98.3814 75.8115 98.1514 76.3289 98.2089 77.0188C98.2664 77.9386 98.3239 78.9159 98.3239 79.8357C98.3239 80.0082 98.2089 80.2381 98.0939 80.4106C94.0122 84.3198 89.873 88.229 85.7913 92.1383C85.7339 92.1957 85.6764 92.1957 85.5614 92.2532C84.0092 90.816 82.457 89.3213 80.9623 87.8841C78.4328 85.4696 75.9033 83.0551 73.3738 80.6405C73.0289 80.2956 72.9139 80.0082 72.9714 79.4908C73.0864 78.456 73.0289 77.3637 72.9714 76.3289C72.9714 76.0414 72.7414 75.754 72.5115 75.524C68.5447 71.6148 66.5901 66.9008 66.6476 61.3244C66.7051 56.9552 66.6476 52.6436 66.6476 48.217C64.1756 47.6996 61.7611 47.1247 59.3466 46.6073C58.4267 46.3773 57.5069 46.2049 56.5296 45.9749C54.9774 45.63 54.0001 44.3652 54.0001 42.8705C54.0001 41.3183 55.0349 40.0536 56.5871 39.7086C65.9578 37.6965 75.3284 35.5695 84.7565 33.4999C85.4464 33.3274 86.2513 33.4424 86.9986 33.6148C96.1393 35.6269 105.28 37.6965 114.421 39.7086C115.8 39.9961 116.778 40.7434 117.123 42.1232C117.468 43.4454 117.008 44.4802 116.03 45.4C115.8 45.63 115.685 46.0324 115.685 46.3198C115.628 48.9643 115.628 51.6088 115.685 54.2533C115.685 54.5982 115.915 55.0581 116.145 55.3455C116.835 56.0929 117.583 56.7828 118.272 57.5301C118.79 58.0475 118.962 58.6224 118.675 59.3123C118.387 60.0021 117.87 60.2896 117.123 60.2896C115.053 60.2896 113.041 60.2896 110.971 60.2896C110.224 60.2896 109.707 60.0021 109.419 59.3123C109.132 58.6224 109.304 58.0475 109.822 57.5301L109.879 57.4726C112.179 55.9204 112.811 53.7359 112.466 51.0914C112.351 49.6542 112.466 48.1595 112.466 46.5498Z" fill="#555555"/>
</svg>
