<svg width="171" height="171" viewBox="0 0 171 171" fill="none" xmlns="http://www.w3.org/2000/svg">
<circle cx="85.0613" cy="85.3145" r="85" fill="#F5DBA7"/>
<path d="M135.061 73.4528C133.359 73.9315 131.657 74.4102 129.849 74.9422C132.083 77.7613 132.242 81.0592 131.923 84.4634C131.604 87.8145 130.806 91.006 127.827 93.3464C128.466 93.5592 129.051 93.7188 129.583 93.9315C130.54 94.2507 130.806 95.2081 130.061 95.8996C129.689 96.2719 129.21 96.5911 128.732 96.6975C126.125 97.4954 125.168 99.5166 124.902 101.91C124.742 103.666 124.849 105.474 124.849 107.283C126.444 107.868 128.04 108.4 129.636 108.985C130.168 109.197 130.646 109.41 131.125 109.729C131.444 109.995 131.657 110.368 131.976 110.687C131.657 110.9 131.338 111.219 130.966 111.272C127.881 112.07 124.795 112.761 121.71 113.506C107.029 117.07 92.3486 120.634 77.6677 124.144C77.2422 124.251 76.7635 124.251 76.338 124.091C64.4231 120.261 52.5082 116.378 40.6464 112.495C38.7847 111.91 37.5613 110.527 36.8167 108.825C34.955 104.889 34.5294 100.74 35.7528 96.5379C36.1252 95.3145 36.923 94.1975 37.6145 92.9741C37.2422 92.8677 36.7103 92.7613 36.1784 92.5485C35.806 92.389 35.4869 92.1762 35.1145 91.9634C35.3805 91.6443 35.5933 91.1656 35.9656 91.006C37.0826 90.4209 38.2528 89.9953 39.423 89.5166C39.955 89.3039 40.4869 89.1443 41.0188 89.0379C42.0826 88.8783 42.2954 88.24 42.3486 87.2826C42.4018 85.3145 42.455 83.3464 41.8167 81.3783C41.2847 79.7826 40.3273 78.6124 38.6784 78.0805C38.0933 77.9209 37.5613 77.5485 37.1358 77.123C36.3911 76.4315 36.6571 75.5273 37.6145 75.2081C38.8911 74.7826 40.1677 74.4102 41.4443 74.0379C38.0401 69.6762 37.5613 64.7826 38.6784 59.6762C39.4762 56.1124 41.7635 54.3039 45.4337 53.7719C53.3592 52.7081 61.2316 51.5911 69.1571 50.4741C77.7741 49.2507 86.4443 48.0804 95.1146 46.9102C96.2316 46.7507 97.3486 46.5379 98.4656 46.4315C98.7848 46.3783 99.1571 46.4315 99.5295 46.5379C110.487 49.8358 121.444 53.1336 132.402 56.4315C132.827 56.5379 133.359 57.0166 133.412 57.389C133.466 57.7613 133.093 58.3464 132.774 58.6656C132.455 58.9847 131.976 59.2507 131.498 59.357C129.583 59.9422 128.519 61.3251 128.253 63.1336C127.934 65.1549 127.934 67.2826 127.934 69.3039C127.934 69.5698 128.359 69.9953 128.678 70.1017C130.221 70.6868 131.817 71.1656 133.359 71.8039C133.998 72.0698 134.529 72.4953 135.061 72.8677C135.061 73.0273 135.061 73.24 135.061 73.4528ZM90.1146 100.368C91.072 100.102 91.8167 99.889 92.6146 99.6762C103.306 96.6975 113.944 93.6656 124.636 90.74C126.338 90.2613 127.402 89.4102 127.987 87.8145C128.944 85.1017 129.104 82.3358 128.519 79.5698C127.987 77.0166 126.604 76.3251 124.157 77.1762C119.636 78.6656 115.115 80.1549 110.593 81.5911C103.944 83.7719 97.2954 85.9528 90.6465 88.0805C90.2209 88.24 89.7954 88.24 89.7954 88.9315C89.9018 92.7613 90.0082 96.4847 90.1146 100.368ZM79.955 81.6443C80.0082 81.3783 80.0082 81.2188 80.0614 81.006C80.1677 77.5485 80.2741 74.0911 80.4337 70.6868C80.4869 69.8358 80.1677 69.5698 79.4231 69.357C68.1465 65.6868 56.8699 62.0166 45.5933 58.3464C43.7847 57.7613 42.5082 58.2932 41.923 60.1017C40.8592 63.3996 41.1252 66.6443 42.5082 69.7826C42.9337 70.7932 43.7316 71.5379 44.8486 71.8039C52.5082 73.9315 60.1677 76.0592 67.7741 78.1868C71.8167 79.3571 75.8592 80.4741 79.955 81.6443ZM77.0294 119.091C77.1358 115.368 77.2422 111.751 77.4018 108.134C77.455 107.336 77.2422 107.017 76.4975 106.751C65.2209 103.134 53.9975 99.4634 42.7741 95.74C40.6996 95.0485 39.2635 96.1124 38.7847 97.7613C37.9337 100.953 38.1464 104.091 39.423 107.07C39.8486 108.134 40.6464 108.878 41.8167 109.197C49.2635 111.272 56.7635 113.346 64.2103 115.421C68.4124 116.697 72.6677 117.868 77.0294 119.091ZM126.976 60.6868C126.551 60.74 126.232 60.7932 125.912 60.8464C121.71 61.6975 117.508 62.6017 113.306 63.4528C103.306 65.4741 93.3592 67.5485 83.3592 69.5698C82.6146 69.7294 82.2954 69.9953 82.2954 70.8464C82.2422 74.2507 82.1358 77.6549 82.0295 81.1124C82.0295 81.2719 82.0826 81.4847 82.0826 81.6975C96.7635 78.0273 111.391 74.4102 126.019 70.7932C125.7 67.2826 125.487 63.9847 126.976 60.6868ZM43.1465 79.3571C44.6358 82.7613 44.4762 86.0592 44.1039 89.4634C58.7316 93.0805 73.3592 96.7507 88.0933 100.421C87.9869 96.4315 87.8805 92.4954 87.7209 88.5592C72.9337 85.4741 58.1465 82.4422 43.1465 79.3571ZM78.9975 119.091C79.2635 119.038 79.3167 119.038 79.4231 119.038C85.3273 117.602 91.1784 116.112 97.0826 114.623C105.487 112.549 113.891 110.421 122.295 108.4C122.881 108.24 123.093 107.974 122.987 107.389C122.615 104.251 122.615 101.166 123.944 98.1337C123.572 98.1868 123.306 98.1868 123.093 98.24C114.476 99.9954 105.859 101.857 97.189 103.559C94.1571 104.144 91.3912 105.58 88.0933 105.58C85.2209 105.58 82.3486 106.644 79.4231 107.283C79.2635 111.219 79.1039 115.102 78.9975 119.091Z" fill="#555555"/>
</svg>
