<svg width="64" height="60" viewBox="0 0 64 60" fill="none" xmlns="http://www.w3.org/2000/svg">
<path d="M0 5.00004C0 2.23861 2.23857 4.40027e-05 5 4.20352e-05L59 3.56231e-06C61.7614 1.5949e-06 64 2.23858 64 5V55C64 57.7614 61.7614 60 59 60H5C2.23858 60 0 57.7614 0 55V5.00004Z" fill="#D2961E"/>
<path d="M32.0977 12C24.8212 12 19 17.8212 19 25.0977C19 34.1206 23.948 42.1247 31.3701 46.7817C31.8067 47.0728 32.3888 47.0728 32.9709 46.7817C40.2474 41.9792 45.1954 34.1206 45.1954 25.0977C45.1954 17.8212 39.3742 12 32.0977 12ZM32.0977 30.9189C28.8961 30.9189 26.2765 28.2994 26.2765 25.0977C26.2765 21.8961 28.8961 19.2765 32.0977 19.2765C35.2994 19.2765 37.9189 21.8961 37.9189 25.0977C37.9189 28.2994 35.2994 30.9189 32.0977 30.9189Z" fill="white"/>
</svg>
