<svg width="64" height="60" viewBox="0 0 64 60" fill="none" xmlns="http://www.w3.org/2000/svg">
<path d="M0 5.00004C0 2.23861 2.23857 4.40027e-05 5 4.20352e-05L59 3.56231e-06C61.7614 1.5949e-06 64 2.23858 64 5V55C64 57.7614 61.7614 60 59 60H5C2.23858 60 0 57.7614 0 55V5.00004Z" fill="#D2961E"/>
<path d="M44 16H20C16.7 16 14 18.7 14 22V37C14 40.3 16.7 43 20 43H44C47.3 43 50 40.3 50 37V22C50 18.7 47.3 16 44 16ZM46.4 24.7L34.55 32.65C33.8 33.1 32.9 33.4 32 33.4C31.1 33.4 30.2 33.1 29.45 32.65L17.6 24.7C17 24.25 16.85 23.35 17.3 22.6C17.75 22 18.65 21.85 19.4 22.3L31.25 30.25C31.7 30.55 32.45 30.55 32.9 30.25L44.75 22.3C45.5 21.85 46.4 22 46.85 22.75C47.15 23.35 47 24.25 46.4 24.7Z" fill="white"/>
</svg>
